<?xml version="1.0" encoding="UTF-8"?>
<svg viewBox="0 0 40 40" xmlns="http://www.w3.org/2000/svg">
<path d="m39.99 0.27022-9.7868 36.563c-0.0497 0.1659-0.2488 0.2157-0.3649 0.0995l-6.5522-6.5558 4.91-18.323c0.0498-0.166-0.0995-0.3154-0.2654-0.2656l-18.313 4.9127-6.519-6.5226c-0.11611-0.1162-0.06635-0.31533 0.09953-0.36512l36.526-9.8088c0.1658-0.033194 0.3151 0.11618 0.2654 0.26555z" fill="#00B37E" opacity=".5"/>
<path d="m23.286 30.377-2.5213 9.4603c-0.0498 0.166-0.2488 0.2158-0.365 0.0996l-20.337-20.331c-0.11611-0.1162-0.066351-0.3153 0.099526-0.3651l9.455-2.5394 13.668 13.676z" fill="#00B37E" opacity=".5"/>
<path d="m28.196 12.054-4.91 18.323-13.668-13.676 18.313-4.9127c0.1659-0.0498 0.3151 0.0996 0.2654 0.2656z" fill="#00B37E"/>
</svg>
